<?xml version="1.0" encoding="utf-8"?>
<!-- Generator: Adobe Illustrator 27.5.0, SVG Export Plug-In . SVG Version: 6.00 Build 0)  -->
<svg version="1.1" xmlns="http://www.w3.org/2000/svg" xmlns:xlink="http://www.w3.org/1999/xlink" x="0px" y="0px"
	 viewBox="0 0 500 500" style="enable-background:new 0 0 500 500;" xml:space="preserve">
<g id="BACKGROUND">
	<rect style="fill:#2F1144;" width="500" height="500"/>
</g>
<g id="OBJECTS">
	<text transform="matrix(1 0 0 1 146.2258 49.0996)" style="fill:#FFFFFF; font-family:'Lato-Regular'; font-size:24px;">Abstract LIQUID</text>
	<text transform="matrix(1 0 0 1 196.2107 65.9502)" style="fill:#D8D8D8; font-family:'Lato-Regular'; font-size:12.1545px;">Gradient Banners</text>
	<g>
		<g>
			
				<linearGradient id="SVGID_1_" gradientUnits="userSpaceOnUse" x1="-129.6553" y1="-41.5891" x2="-44.7273" y2="84.4676" gradientTransform="matrix(-0.9998 -0.0207 0.023 -1.1105 276.6406 384.1137)">
				<stop  offset="0" style="stop-color:#FDBB96"/>
				<stop  offset="1" style="stop-color:#FD4270"/>
			</linearGradient>
			<path style="opacity:0.26;fill:url(#SVGID_1_);" d="M447.274,390.985c0,0-13.337,40.932-56.936,15.035
				c-37.456-22.249-45.379,13.972-70.452,15.958c-48.425,3.836-50.537-73.7-1.132-113.712
				C374.089,263.452,480.863,304.277,447.274,390.985z"/>
			
				<linearGradient id="SVGID_00000076583564583858500820000007421652410508635555_" gradientUnits="userSpaceOnUse" x1="335.5555" y1="295.4418" x2="415.2367" y2="413.7108">
				<stop  offset="0" style="stop-color:#D32B8A"/>
				<stop  offset="1" style="stop-color:#A114C0"/>
			</linearGradient>
			<path style="fill:url(#SVGID_00000076583564583858500820000007421652410508635555_);" d="M299.201,353.36
				c0.236-0.802-5.879-52.181,46.375-47.246c52.254,4.935,51.165-19.232,84.259-12.265c33.094,6.967,41.135,51.652,14.54,82.145
				c-26.596,30.492-63.678,45.698-63.678,45.698s-20.533,14.113-51.015,7.146c-30.482-6.967-35.126-47.998-35.126-47.998
				L299.201,353.36z"/>
			
				<linearGradient id="SVGID_00000139976594766192827140000002770246988405708205_" gradientUnits="userSpaceOnUse" x1="328.5862" y1="294.7438" x2="414.0405" y2="421.5816">
				<stop  offset="0" style="stop-color:#FDBB96"/>
				<stop  offset="1" style="stop-color:#FD4270"/>
			</linearGradient>
			<path style="fill:url(#SVGID_00000139976594766192827140000002770246988405708205_);" d="M285.848,333.33
				c0,0,15.386-36.868,59.511-14.37c37.909,19.328,45.081-13.421,70.107-15.676c48.335-4.354,52.05,65.396,3.484,102.331
				C364.554,446.982,254.06,412.001,285.848,333.33z"/>
			<g>
				<path style="fill:#FDBB96;" d="M417.894,303.129c42.728,1.584,44.202,67.094-2.335,102.485
					c-15.277,11.618-34.98,17.213-54.713,17.51c20.852,0.325,41.951-5.226,58.104-17.51
					C466.69,369.308,463.91,301.299,417.894,303.129z"/>
				<path style="fill:#FDBB96;" d="M341.968,318.96c9.385,4.785,16.884,6.375,23.238,6.03c-5.604-0.298-12.08-2.069-19.847-6.03
					c-11.122-5.671-20.416-7.567-28.101-7.235C324.244,312.013,332.434,314.099,341.968,318.96z"/>
			</g>

			
				<linearGradient id="SVGID_00000179647693915474367740000006494987284332334232_" gradientUnits="userSpaceOnUse" x1="295.6316" y1="294.0267" x2="305.887" y2="309.2484">
				<stop  offset="0" style="stop-color:#D32B8A"/>
				<stop  offset="1" style="stop-color:#A114C0"/>
			</linearGradient>
			<path style="fill:url(#SVGID_00000179647693915474367740000006494987284332334232_);" d="M292.791,302.633
				c0,0-1.397-8.02,5.651-9.357c7.048-1.337,9.965,4.375,9.904,8.932c-0.061,4.557-3.646,7.595-8.324,7.23
				C295.343,309.074,293.217,305.003,292.791,302.633z"/>
			
				<linearGradient id="SVGID_00000153669125402596006270000002475723683127017358_" gradientUnits="userSpaceOnUse" x1="406.5037" y1="423.3303" x2="414.665" y2="435.444">
				<stop  offset="0" style="stop-color:#D32B8A"/>
				<stop  offset="1" style="stop-color:#A114C0"/>
			</linearGradient>
			<path style="fill:url(#SVGID_00000153669125402596006270000002475723683127017358_);" d="M404.243,430.18
				c0,0-1.112-6.383,4.497-7.447c5.609-1.064,7.93,3.482,7.882,7.108c-0.048,3.627-2.901,6.044-6.625,5.754
				C406.274,435.305,404.582,432.065,404.243,430.18z"/>
			
				<linearGradient id="SVGID_00000054243947012097807290000013008681611493731768_" gradientUnits="userSpaceOnUse" x1="373.4176" y1="-1.1823" x2="379.4132" y2="7.7169" gradientTransform="matrix(0.5397 0.8419 -0.8419 0.5397 117.6148 -27.8542)">
				<stop  offset="0" style="stop-color:#FDBB96"/>
				<stop  offset="1" style="stop-color:#FD4270"/>
			</linearGradient>
			<path style="fill:url(#SVGID_00000054243947012097807290000013008681611493731768_);" d="M315.011,287.206
				c0,0,3.507-3.218,6.389-0.171c2.882,3.047,0.991,6.285-1.272,7.693c-2.262,1.408-4.889,0.602-6.185-1.816
				C312.646,290.494,313.979,288.163,315.011,287.206z"/>
			
				<linearGradient id="SVGID_00000017515392385632023610000009353151050058588291_" gradientUnits="userSpaceOnUse" x1="458.2926" y1="-115.6154" x2="464.2883" y2="-106.7162" gradientTransform="matrix(0.5397 0.8419 -0.8419 0.5397 117.6148 -27.8542)">
				<stop  offset="0" style="stop-color:#FDBB96"/>
				<stop  offset="1" style="stop-color:#FD4270"/>
			</linearGradient>
			<path style="fill:url(#SVGID_00000017515392385632023610000009353151050058588291_);" d="M457.16,296.902
				c0,0,3.507-3.218,6.389-0.171c2.882,3.048,0.991,6.285-1.272,7.693c-2.262,1.408-4.889,0.602-6.185-1.816
				C454.795,300.19,456.127,297.859,457.16,296.902z"/>
			
				<linearGradient id="SVGID_00000127722275462024464380000016668578562552468875_" gradientUnits="userSpaceOnUse" x1="530.033" y1="13.4911" x2="534.5736" y2="20.2307" gradientTransform="matrix(0.5397 0.8419 -0.8419 0.5397 117.6148 -27.8542)">
				<stop  offset="0" style="stop-color:#FDBB96"/>
				<stop  offset="1" style="stop-color:#FD4270"/>
			</linearGradient>
			<path style="fill:url(#SVGID_00000127722275462024464380000016668578562552468875_);" d="M388.429,426.659
				c0,0,2.656-2.437,4.838-0.129c2.182,2.308,0.75,4.76-0.963,5.826c-1.713,1.066-3.702,0.456-4.684-1.375
				C386.638,429.15,387.647,427.384,388.429,426.659z"/>
			
				<linearGradient id="SVGID_00000080889329643390063030000012207977917958782604_" gradientUnits="userSpaceOnUse" x1="545.4202" y1="14.9528" x2="548.873" y2="20.0777" gradientTransform="matrix(0.5397 0.8419 -0.8419 0.5397 117.6148 -27.8542)">
				<stop  offset="0" style="stop-color:#FDBB96"/>
				<stop  offset="1" style="stop-color:#FD4270"/>
			</linearGradient>
			<path style="fill:url(#SVGID_00000080889329643390063030000012207977917958782604_);" d="M396.434,440.164
				c0,0,2.02-1.853,3.679-0.098c1.66,1.755,0.571,3.62-0.732,4.43s-2.815,0.347-3.562-1.046
				C395.072,442.057,395.839,440.715,396.434,440.164z"/>
		</g>
		
			<linearGradient id="SVGID_00000152947978921808264790000003392708934172611461_" gradientUnits="userSpaceOnUse" x1="694.9668" y1="95.3698" x2="701.8774" y2="105.6271" gradientTransform="matrix(-0.1144 0.9934 -3.7721 -0.4343 894.336 -365.819)">
			<stop  offset="0" style="stop-color:#FDBB96"/>
			<stop  offset="1" style="stop-color:#FD4270"/>
		</linearGradient>
		<path style="fill:url(#SVGID_00000152947978921808264790000003392708934172611461_);" d="M436.064,276.381
			c0,0,17.118,0.969,18.642,12.514c0.827,6.262-9.843-0.876-22.602-2.391c-12.759-1.514-16.675-0.402-15.257-3.736
			C418.266,279.435,427.054,275.845,436.064,276.381z"/>
	</g>
	<g>
		
			<linearGradient id="SVGID_00000179633723155842001060000013900362844989566637_" gradientUnits="userSpaceOnUse" x1="102.6822" y1="279.8947" x2="197.5541" y2="420.7107" gradientTransform="matrix(-0.9215 -0.6234 0.5603 -0.8283 88.0277 739.6928)">
			<stop  offset="0" style="stop-color:#D7DF23"/>
			<stop  offset="1" style="stop-color:#1098AB"/>
		</linearGradient>
		<path style="opacity:0.26;fill:url(#SVGID_00000179633723155842001060000013900362844989566637_);" d="M185.216,441.465
			c0,0-36.101,9.101-65.176-35.782c-27.154-41.917-52.068-22.133-67.577-51.6c-15.509-29.468,57.217-101.612,110.884-64.04
			c53.668,37.572,40.245,72.769,68.838,88.317C260.777,393.908,227.858,431.728,185.216,441.465z"/>
		
			<linearGradient id="SVGID_00000146461806217409129510000006856531178347033748_" gradientUnits="userSpaceOnUse" x1="54.985" y1="369.8312" x2="249.6417" y2="369.8312">
			<stop  offset="0" style="stop-color:#2D3C54"/>
			<stop  offset="1" style="stop-color:#1098AB"/>
		</linearGradient>
		<path style="fill:url(#SVGID_00000146461806217409129510000006856531178347033748_);" d="M233.903,400.083
			c0,0-19.642,31.937-72.648,20.635c-49.503-10.555-53.441,21.061-85.65,11.113c-32.21-9.948-30.964-112.44,34.63-123.682
			c65.595-11.242,80.949,23.19,112.713,14.032C254.712,313.023,257.826,363.078,233.903,400.083z"/>
		
			<linearGradient id="SVGID_00000080885745651442335960000013618755743647886762_" gradientUnits="userSpaceOnUse" x1="844.5449" y1="202.6652" x2="848.6773" y2="208.7989" gradientTransform="matrix(0.9787 -0.2055 0.7801 3.716 -946.0543 -210.8801)">
			<stop  offset="0" style="stop-color:#2D3C54"/>
			<stop  offset="1" style="stop-color:#1098AB"/>
		</linearGradient>
		<path style="fill:url(#SVGID_00000080885745651442335960000013618755743647886762_);" d="M38.36,380.74
			c0,0-2.685-9.895,3.577-12.941c3.396-1.653,1.363,5.75,2.915,13.275c1.552,7.525,2.924,9.536,0.764,9.362
			C43.457,390.26,39.759,385.953,38.36,380.74z"/>
		
			<linearGradient id="SVGID_00000080180809987657813860000004208645305735011209_" gradientUnits="userSpaceOnUse" x1="229.9644" y1="288.1619" x2="192.6585" y2="320.6908">
			<stop  offset="0" style="stop-color:#D7DF23"/>
			<stop  offset="1" style="stop-color:#1098AB"/>
		</linearGradient>
		<path style="fill:url(#SVGID_00000080180809987657813860000004208645305735011209_);" d="M210.152,296.452
			c0,0,16.05,1.28,17.231,12.152c0.641,5.897-9.222-1.035-21.168-2.733c-11.946-1.698-15.646-0.738-14.243-3.837
			C193.376,298.935,201.704,295.755,210.152,296.452z"/>
		
			<linearGradient id="SVGID_00000076599002569045558960000001876439235119561906_" gradientUnits="userSpaceOnUse" x1="98.9599" y1="296.7364" x2="193.8335" y2="437.5549">
			<stop  offset="0" style="stop-color:#D7DF23"/>
			<stop  offset="1" style="stop-color:#1098AB"/>
		</linearGradient>
		<path style="fill:url(#SVGID_00000076599002569045558960000001876439235119561906_);" d="M74.111,318.311
			c0,0,22.293-27.767,66.543-6.884c41.326,19.503,49.91-10.844,76.297,4.873c26.387,15.717,8.58,116.222-50.297,115.174
			c-58.877-1.048-66.611-37.721-95.728-34.578C41.81,400.04,47.269,350.269,74.111,318.311z"/>
		<g>
			
				<linearGradient id="SVGID_00000090279634973009166820000003669401832080333735_" gradientUnits="userSpaceOnUse" x1="50.4587" y1="371.5043" x2="53.6038" y2="376.1725">
				<stop  offset="0" style="stop-color:#D7DF23"/>
				<stop  offset="1" style="stop-color:#1098AB"/>
			</linearGradient>
			<path style="fill:url(#SVGID_00000090279634973009166820000003669401832080333735_);" d="M52.374,376.54
				c-0.421-1.759-0.703-3.646-0.847-5.643c-0.063,0.963-0.099,1.91-0.11,2.839C51.689,374.717,52.008,375.653,52.374,376.54z"/>
			<path style="fill:#8DC63F;" d="M228.781,345.223c-0.46,12.208-3.388,25.807-8.734,38.26
				c-9.476,24.067-27.772,44.681-54.604,44.203c-58.877-1.048-66.611-37.721-95.728-34.578c-8.873,0.958-14.529-3.004-17.353-9.873
				c2.179,9.155,8.165,14.785,18.564,13.662c29.117-3.143,36.851,33.53,95.728,34.578C209.1,432.23,230.197,380.209,228.781,345.223
				z"/>
		</g>

		
			<linearGradient id="SVGID_00000025437830709217231820000013402236917750539653_" gradientUnits="userSpaceOnUse" x1="349.5689" y1="212.808" x2="356.7201" y2="223.4224" gradientTransform="matrix(0.8587 0.5125 -0.5125 0.8587 46.2796 -57.1187)">
			<stop  offset="0" style="stop-color:#2D3C54"/>
			<stop  offset="1" style="stop-color:#1098AB"/>
		</linearGradient>
		<path style="fill:url(#SVGID_00000025437830709217231820000013402236917750539653_);" d="M232.614,308.912
			c0,0,2.03-5.302,6.728-3.583c4.698,1.719,4.403,6.181,2.738,8.888c-1.665,2.707-4.897,3.245-7.568,1.354
			C231.84,313.681,232.022,310.483,232.614,308.912z"/>
		
			<linearGradient id="SVGID_00000057831024544465191630000000272781064009318061_" gradientUnits="userSpaceOnUse" x1="235.9769" y1="288.5334" x2="222.556" y2="305.3664">
			<stop  offset="0" style="stop-color:#D7DF23"/>
			<stop  offset="1" style="stop-color:#1098AB"/>
		</linearGradient>
		<path style="fill:url(#SVGID_00000057831024544465191630000000272781064009318061_);" d="M230.055,292.186
			c0,0,3.093-0.641,3.698,2.075c0.606,2.717-1.573,3.918-3.341,3.951c-1.768,0.033-2.99-1.32-2.907-3.138
			C227.589,293.255,229.141,292.38,230.055,292.186z"/>
		
			<linearGradient id="SVGID_00000111149768130345613170000016521733686477014694_" gradientUnits="userSpaceOnUse" x1="330.3293" y1="378.2128" x2="337.4806" y2="388.8271" gradientTransform="matrix(0.8587 0.5125 -0.5125 0.8587 46.2796 -57.1187)">
			<stop  offset="0" style="stop-color:#D7DF23"/>
			<stop  offset="1" style="stop-color:#1098AB"/>
		</linearGradient>
		<path style="fill:url(#SVGID_00000111149768130345613170000016521733686477014694_);" d="M131.323,441.085
			c0,0,2.029-5.302,6.728-3.583s4.403,6.181,2.738,8.888c-1.665,2.707-4.897,3.245-7.568,1.355
			C130.549,445.853,130.731,442.656,131.323,441.085z"/>
		
			<linearGradient id="SVGID_00000009578151323316836030000003948159737282684561_" gradientUnits="userSpaceOnUse" x1="448.888" y1="48.0817" x2="452.8668" y2="53.9873" gradientTransform="matrix(0.0319 0.9995 -0.9995 0.0319 161.1483 -21.4423)">
			<stop  offset="0" style="stop-color:#2D3C54"/>
			<stop  offset="1" style="stop-color:#1098AB"/>
		</linearGradient>
		<path style="fill:url(#SVGID_00000009578151323316836030000003948159737282684561_);" d="M124.037,427.76
			c0,0,3.093-0.641,3.699,2.075c0.606,2.717-1.573,3.918-3.341,3.951c-1.768,0.033-2.99-1.32-2.907-3.138
			C121.572,428.83,123.124,427.954,124.037,427.76z"/>
		
			<linearGradient id="SVGID_00000002383696343971619870000016499212983610947977_" gradientUnits="userSpaceOnUse" x1="463.9306" y1="56.9067" x2="467.9094" y2="62.8123" gradientTransform="matrix(0.0319 0.9995 -0.9995 0.0319 161.1483 -21.4423)">
			<stop  offset="0" style="stop-color:#2D3C54"/>
			<stop  offset="1" style="stop-color:#1098AB"/>
		</linearGradient>
		<path style="fill:url(#SVGID_00000002383696343971619870000016499212983610947977_);" d="M115.697,443.077
			c0,0,3.093-0.641,3.699,2.075c0.606,2.717-1.573,3.918-3.341,3.951c-1.768,0.033-2.99-1.32-2.907-3.138
			C113.231,444.146,114.783,443.271,115.697,443.077z"/>
	</g>
	<g>
		
			<linearGradient id="SVGID_00000036252383245489441880000017051422484355376032_" gradientUnits="userSpaceOnUse" x1="322.8173" y1="127.2584" x2="412.7837" y2="260.7934">
			<stop  offset="0" style="stop-color:#D32B8A"/>
			<stop  offset="1" style="stop-color:#905AE3"/>
		</linearGradient>
		<path style="opacity:0.26;fill:url(#SVGID_00000036252383245489441880000017051422484355376032_);" d="M460.985,184.84
			c-1.333-18.501-17.85-52.88-46.011-51.949c-14.874-18.949-37.322-31.482-66.083-19.242c-17.824,7.586-16.749,23.227-14.998,42.423
			c-11.43,10.344-25.4,19.615-45.29,21.039c-26.683,1.91-22.609,65.669,33.383,75.178c0,0,4.571,0.257,12.017-1.184
			c16.349,9.96,43.608,13.418,69.857-2.732c0,0,6.228-3.455,13.191-10.849c7.02-0.706,14.462-3.014,21.791-7.523
			C438.842,230,463.263,216.455,460.985,184.84z"/>
		
			<linearGradient id="SVGID_00000127722925185008679300000014376225955345167261_" gradientUnits="userSpaceOnUse" x1="459.2005" y1="186.5964" x2="265.194" y2="190.8659">
			<stop  offset="0" style="stop-color:#961C7F"/>
			<stop  offset="1" style="stop-color:#521CE8"/>
		</linearGradient>
		<path style="fill:url(#SVGID_00000127722925185008679300000014376225955345167261_);" d="M353.049,123.623
			c0,0,13.347,11.525,44.94,5.711c31.592-5.813,50.325,6.137,51.294,20.671c0.969,14.534-3.454,22.201,3.553,36.819
			c5.082,10.602,10.658,54.26-29.068,51.353c-39.726-2.907-72.102,27.729-108.197,11.734c-26.48-11.734-14.534-31.436-31.512-56.305
			c-9.64-14.12-12.696-52.645,28.141-57.49C353.035,131.273,353.049,123.623,353.049,123.623z"/>
		
			<linearGradient id="SVGID_00000090278445544278201770000017722561659023970198_" gradientUnits="userSpaceOnUse" x1="557.8163" y1="147.8398" x2="656.5073" y2="294.3244" gradientTransform="matrix(-0.3795 0.9252 -0.9252 -0.3795 795.9771 -286.1584)">
			<stop  offset="0" style="stop-color:#D32B8A"/>
			<stop  offset="1" style="stop-color:#905AE3"/>
		</linearGradient>
		<path style="fill:url(#SVGID_00000090278445544278201770000017722561659023970198_);" d="M436.822,158.037
			c0,0-20.16-38.714-69.653-36.453c-33.594,1.535-101.413,34.105-78.406,92.371c15.661,39.661,69.395-3.897,116.378,32.486
			C428.147,264.256,467.092,210.264,436.822,158.037z"/>
		<g>
			<path style="fill:#D32B8A;" d="M318.764,232.05c9.846,0.192,21.199-1.271,33.247-1.421
				C340.091,230.477,328.755,231.877,318.764,232.05z"/>
			<path style="fill:#E553AD;" d="M436.822,158.037c0,0-19.58-37.595-67.515-36.524c45.194,0.91,63.748,36.524,63.748,36.524
				c25.5,43.998,1.88,89.245-19.952,91.761C435.8,252.531,463.8,204.584,436.822,158.037z"/>
		</g>
		
			<linearGradient id="SVGID_00000081649463727367481550000013432286548226653569_" gradientUnits="userSpaceOnUse" x1="419.7698" y1="104.7131" x2="431.4086" y2="104.7131">
			<stop  offset="0" style="stop-color:#D32B8A"/>
			<stop  offset="1" style="stop-color:#905AE3"/>
		</linearGradient>
		<path style="fill:url(#SVGID_00000081649463727367481550000013432286548226653569_);" d="M431.319,103.673
			c0,0,1.069,5.95-4.16,6.97c-5.228,1.02-7.416-3.21-7.389-6.594c0.027-3.384,2.678-5.654,6.153-5.401
			S430.994,101.915,431.319,103.673z"/>
		
			<linearGradient id="SVGID_00000086693957227520785950000007098697709709035194_" gradientUnits="userSpaceOnUse" x1="416.2587" y1="113.6224" x2="416.4202" y2="123.7961">
			<stop  offset="0" style="stop-color:#961C7F"/>
			<stop  offset="1" style="stop-color:#521CE8"/>
		</linearGradient>
		<path style="fill:url(#SVGID_00000086693957227520785950000007098697709709035194_);" d="M415.832,121.453
			c0,0-3.322-0.529-2.899-3.463c0.422-2.934,3.045-3.308,4.818-2.673c1.773,0.635,2.479,2.443,1.71,4.222
			C418.691,121.319,416.816,121.604,415.832,121.453z"/>
		
			<linearGradient id="SVGID_00000016767972790802399720000005681124594361620871_" gradientUnits="userSpaceOnUse" x1="443.8128" y1="116.0338" x2="435.0924" y2="133.4744">
			<stop  offset="0" style="stop-color:#961C7F"/>
			<stop  offset="1" style="stop-color:#521CE8"/>
		</linearGradient>
		<path style="fill:url(#SVGID_00000016767972790802399720000005681124594361620871_);" d="M443.369,128.985
			c0,0-14.143-3.736-15.361-8.413c-1.218-4.677,7.455-5.049,14.124-3.874c6.669,1.175,12.827,4.944,11.802,7.736
			C452.907,127.227,449.656,130.793,443.369,128.985z"/>
		
			<linearGradient id="SVGID_00000169538181174842262340000007960306760148714170_" gradientUnits="userSpaceOnUse" x1="549.8151" y1="137.6909" x2="556.7257" y2="147.948" gradientTransform="matrix(0.1447 0.9895 -3.7571 0.5493 761.5931 -500.6765)">
			<stop  offset="0" style="stop-color:#D32B8A"/>
			<stop  offset="1" style="stop-color:#905AE3"/>
		</linearGradient>
		<path style="fill:url(#SVGID_00000169538181174842262340000007960306760148714170_);" d="M303.712,117.352
			c0,0,16.792-3.461,21.231,7.305c2.408,5.84-9.738,1.682-22.458,3.496c-12.72,1.814-16.219,3.896-15.704,0.309
			C287.295,124.876,294.866,119.149,303.712,117.352z"/>

		
			<linearGradient id="SVGID_00000088090795603009925130000014921353129296534456_" gradientUnits="userSpaceOnUse" x1="380.1294" y1="267.6006" x2="391.7682" y2="267.6006">
			<stop  offset="0" style="stop-color:#D32B8A"/>
			<stop  offset="1" style="stop-color:#905AE3"/>
		</linearGradient>
		<path style="fill:url(#SVGID_00000088090795603009925130000014921353129296534456_);" d="M391.678,266.56
			c0,0,1.069,5.95-4.16,6.97c-5.228,1.02-7.416-3.21-7.389-6.594c0.027-3.384,2.678-5.654,6.153-5.401
			C389.758,261.788,391.353,264.802,391.678,266.56z"/>
		
			<linearGradient id="SVGID_00000163795775637668166690000017127473177241185427_" gradientUnits="userSpaceOnUse" x1="403.0175" y1="268.8672" x2="411.6167" y2="275.4075">
			<stop  offset="0" style="stop-color:#961C7F"/>
			<stop  offset="1" style="stop-color:#521CE8"/>
		</linearGradient>
		<path style="fill:url(#SVGID_00000163795775637668166690000017127473177241185427_);" d="M408.066,273.395
			c0,0-2.466,2.287-4.514,0.144c-2.047-2.143-0.723-4.438,0.87-5.441c1.593-1.003,3.452-0.443,4.378,1.26
			C409.725,271.063,408.792,272.715,408.066,273.395z"/>
		
			<linearGradient id="SVGID_00000054245161272550799860000014594861575556698274_" gradientUnits="userSpaceOnUse" x1="398.9677" y1="254.5377" x2="412.5327" y2="264.348">
			<stop  offset="0" style="stop-color:#961C7F"/>
			<stop  offset="1" style="stop-color:#521CE8"/>
		</linearGradient>
		<path style="fill:url(#SVGID_00000054245161272550799860000014594861575556698274_);" d="M407.001,260.655
			c0,0-7.788,1.556-9.83,0.241c-2.042-1.315,1.038-4.404,3.904-6.239c2.866-1.835,5.634-1.771,6.997-1.156
			C409.705,254.238,412.357,259.331,407.001,260.655z"/>
	</g>
	<g>
		
			<linearGradient id="SVGID_00000150100268940493878220000010479359548937663901_" gradientUnits="userSpaceOnUse" x1="43.9622" y1="91.4165" x2="224.6163" y2="91.4165" gradientTransform="matrix(-1 0 0 -1 283.8669 279.4228)">
			<stop  offset="0" style="stop-color:#47D6CA"/>
			<stop  offset="1" style="stop-color:#5049E1"/>
		</linearGradient>
		<path style="opacity:0.26;fill:url(#SVGID_00000150100268940493878220000010479359548937663901_);" d="M72.383,190.382
			c1.075,7.282,3.496,14.658,7.306,21.594c-5.425,21.422,4.288,41.401,26.432,46.063c30.88,6.501,30.651-10.639,79.408-6.034
			c48.757,4.605,43.052-43.337,43.272-44.085l0.129-0.765c2.312-3.847,3.311-6.345,3.311-6.345
			c24.41-57.862-14.465-96.738-47.013-80.69c-0.075,0.037-0.149,0.069-0.224,0.105c-7.764,2.584-23.632,5.995-45.432,1.22
			c-31.643-6.931-60.273-3.315-74.135,18.986C53.509,159.62,60.481,179.79,72.383,190.382z"/>
		
			<linearGradient id="SVGID_00000111882216321376754590000011492674291925478294_" gradientUnits="userSpaceOnUse" x1="108.7899" y1="213.635" x2="239.9062" y2="213.635">
			<stop  offset="0" style="stop-color:#905AE3"/>
			<stop  offset="1" style="stop-color:#4531B7"/>
		</linearGradient>
		<path style="fill:url(#SVGID_00000111882216321376754590000011492674291925478294_);" d="M108.79,252.266
			c0,0,19.15-10.316,50.793-3.384c31.643,6.931,60.273,3.315,74.135-18.986c13.863-22.301,2.204-45.94-13.062-54.312
			C205.39,167.212,108.79,252.266,108.79,252.266z"/>
		
			<linearGradient id="SVGID_00000037651254110407460510000003524049208206392243_" gradientUnits="userSpaceOnUse" x1="66.0199" y1="172.7175" x2="220.9445" y2="172.7175">
			<stop  offset="0" style="stop-color:#905AE3"/>
			<stop  offset="1" style="stop-color:#4531B7"/>
		</linearGradient>
		<path style="fill:url(#SVGID_00000037651254110407460510000003524049208206392243_);" d="M70.354,162.407
			c0.22-0.748-5.485-48.689,43.272-44.085c48.757,4.605,48.529-12.535,79.408-6.034c30.88,6.501,37.595,42.786,12.779,71.238
			c-24.816,28.452-59.417,42.64-59.417,42.64s-19.159,13.169-47.601,6.668S66.02,188.048,66.02,188.048L70.354,162.407z"/>
		
			<linearGradient id="SVGID_00000146470997241899622120000011988225810529212810_" gradientUnits="userSpaceOnUse" x1="59.2506" y1="188.0063" x2="227.4251" y2="188.0063">
			<stop  offset="0" style="stop-color:#47D6CA"/>
			<stop  offset="1" style="stop-color:#5049E1"/>
		</linearGradient>
		<path style="fill:url(#SVGID_00000146470997241899622120000011988225810529212810_);" d="M66.914,169.516
			c0,0,20.794-51.985,92.217-47.013c71.423,4.972,84.984,83.15,49.273,102.827c-35.712,19.677-61.93,8.828-94.477,24.875
			C81.379,266.254,42.503,227.378,66.914,169.516z"/>
		
			<linearGradient id="SVGID_00000159453135876511585940000000477053771144647602_" gradientUnits="userSpaceOnUse" x1="59.2506" y1="188.0063" x2="227.4251" y2="188.0063">
			<stop  offset="0" style="stop-color:#47D6CA"/>
			<stop  offset="1" style="stop-color:#5049E1"/>
		</linearGradient>
		<path style="fill:url(#SVGID_00000159453135876511585940000000477053771144647602_);" d="M66.914,169.516
			c0,0,20.794-51.985,92.217-47.013c71.423,4.972,84.984,83.15,49.273,102.827c-35.712,19.677-61.93,8.828-94.477,24.875
			C81.379,266.254,42.503,227.378,66.914,169.516z"/>
		<path style="fill:#7D7DF4;" d="M168.228,123.596c60.324,12.686,70.207,82.614,36.704,101.074
			c-35.712,19.677-61.93,8.828-94.477,24.876c-6.48,3.195-13.208,4.201-19.64,3.324c7.451,1.836,15.455,1.111,23.112-2.664
			c32.547-16.048,58.766-5.199,94.477-24.876C242.54,206.522,231.638,134.277,168.228,123.596z"/>
		<g>
			
				<linearGradient id="SVGID_00000061453107167168137360000002858824099961629606_" gradientUnits="userSpaceOnUse" x1="168.387" y1="86.0217" x2="176.0021" y2="97.3247" gradientTransform="matrix(0.8587 0.5125 -0.5125 0.8587 46.2796 -57.1187)">
				<stop  offset="0" style="stop-color:#47D6CA"/>
				<stop  offset="1" style="stop-color:#5049E1"/>
			</linearGradient>
			<path style="fill:url(#SVGID_00000061453107167168137360000002858824099961629606_);" d="M141.701,107.453
				c0,0,2.161-5.646,7.164-3.816c5.003,1.83,4.689,6.582,2.916,9.464c-1.773,2.883-5.215,3.455-8.059,1.442
				C140.877,112.531,141.07,109.126,141.701,107.453z"/>
			
				<linearGradient id="SVGID_00000105404528258741608310000005145880719451495102_" gradientUnits="userSpaceOnUse" x1="118.6537" y1="30.644" x2="122.8906" y2="36.9327" gradientTransform="matrix(0.0319 0.9995 -0.9995 0.0319 161.1483 -21.4423)">
				<stop  offset="0" style="stop-color:#905AE3"/>
				<stop  offset="1" style="stop-color:#4531B7"/>
			</linearGradient>
			<path style="fill:url(#SVGID_00000105404528258741608310000005145880719451495102_);" d="M130.713,97.07
				c0,0,3.293-0.683,3.938,2.21c0.645,2.893-1.675,4.172-3.558,4.208c-1.883,0.035-3.184-1.405-3.096-3.342
				C128.087,98.209,129.74,97.277,130.713,97.07z"/>
			
				<linearGradient id="SVGID_00000134244375446316330400000008596788577310319755_" gradientUnits="userSpaceOnUse" x1="130.996" y1="37.6231" x2="134.2987" y2="42.5251" gradientTransform="matrix(0.0319 0.9995 -2.3757 0.0759 216.0169 -22.835)">
				<stop  offset="0" style="stop-color:#905AE3"/>
				<stop  offset="1" style="stop-color:#4531B7"/>
			</linearGradient>
			<path style="fill:url(#SVGID_00000134244375446316330400000008596788577310319755_);" d="M125.039,108.526
				c0,0,7.471,2.694,8.54,4.876c1.068,2.181-3.165,3.233-6.567,3.323c-3.402,0.09-5.738-1.397-6.587-2.627
				C119.407,112.622,119.77,106.891,125.039,108.526z"/>
		</g>
		
			<linearGradient id="SVGID_00000176040418562176356130000008086540659788182441_" gradientUnits="userSpaceOnUse" x1="103.5947" y1="142.5034" x2="112.7889" y2="156.1501" gradientTransform="matrix(0.9999 -0.0143 0.0542 3.7966 -69.3552 -355.9663)">
			<stop  offset="0" style="stop-color:#47D6CA"/>
			<stop  offset="1" style="stop-color:#5049E1"/>
		</linearGradient>
		<path style="fill:url(#SVGID_00000176040418562176356130000008086540659788182441_);" d="M37.531,209.252
			c0,0-4.52-19.89,11.595-24.895c6.032-1.873,0.396,9.874,0.534,22.722c0.138,12.848,4.777,23.805,1.289,22.827
			C47.461,228.928,38.158,218.257,37.531,209.252z"/>
		
		
			<linearGradient id="SVGID_00000134227222451043227570000016218184854487360133_" gradientUnits="userSpaceOnUse" x1="283.1983" y1="-17.0244" x2="287.4352" y2="-10.7357" gradientTransform="matrix(0.0319 0.9995 -0.9995 0.0319 161.1483 -21.4423)">
			<stop  offset="0" style="stop-color:#905AE3"/>
			<stop  offset="1" style="stop-color:#4531B7"/>
		</linearGradient>
		<path style="fill:url(#SVGID_00000134227222451043227570000016218184854487360133_);" d="M183.607,260.012
			c0,0,3.294-0.683,3.938,2.21c0.645,2.893-1.675,4.172-3.558,4.208c-1.883,0.035-3.184-1.405-3.096-3.342
			C180.981,261.151,182.634,260.219,183.607,260.012z"/>
		
			<linearGradient id="SVGID_00000100373416852811123260000011083839128811271558_" gradientUnits="userSpaceOnUse" x1="281.318" y1="21.9724" x2="287.9464" y2="31.8107" gradientTransform="matrix(0.0319 0.9995 -2.3757 0.0759 216.0169 -22.835)">
			<stop  offset="0" style="stop-color:#905AE3"/>
			<stop  offset="1" style="stop-color:#4531B7"/>
		</linearGradient>
		<path style="fill:url(#SVGID_00000100373416852811123260000011083839128811271558_);" d="M159.043,257.65
			c0,0,14.604,0.841,16.73,5.181c2.126,4.341-6.298,6.434-13.068,6.612c-6.769,0.178-13.555-2.288-13.107-5.228
			C150.047,261.275,152.522,257.132,159.043,257.65z"/>
	</g>
</g>
<g id="DESIGNED_BY_FREEPIK">
	<g>
		<g>
			<g id="XMLID_225_">
				<g id="XMLID_244_">
					<path id="XMLID_252_" style="fill:#F2F2F2;" d="M259.557,472.254c-0.408,0.418-0.759,0.881-1.047,1.373l-0.44-0.227
						c-0.065-0.281-0.331-0.477-0.625-0.441c-0.313,0.037-0.536,0.32-0.501,0.633c0.037,0.315,0.322,0.537,0.634,0.5
						c0.064-0.006,0.12-0.023,0.174-0.049l0.427,0.223c-0.236,0.523-0.408,1.076-0.51,1.648l0.708,0.125
						c0.216-1.236,0.804-2.371,1.693-3.285L259.557,472.254z"/>
					<path id="XMLID_251_" style="fill:#F2F2F2;" d="M264.749,470.076c-0.163,0-0.323,0.006-0.482,0.016l-0.07-0.592
						c0.178-0.143,0.281-0.369,0.251-0.611c-0.042-0.371-0.38-0.637-0.752-0.594c-0.371,0.045-0.637,0.381-0.593,0.754
						c0.027,0.24,0.18,0.436,0.383,0.533l0.068,0.59c-0.675,0.109-1.327,0.314-1.947,0.611l0.309,0.646
						c0.885-0.422,1.836-0.637,2.834-0.637c0.469,0,0.939,0.049,1.395,0.148l0.151-0.701
						C265.789,470.131,265.27,470.076,264.749,470.076z"/>
					<path id="XMLID_250_" style="fill:#F2F2F2;" d="M270.993,472.484c0.314-0.037,0.536-0.322,0.497-0.635
						c-0.037-0.313-0.321-0.535-0.636-0.498c-0.291,0.037-0.506,0.287-0.5,0.576l-0.394,0.344c-0.395-0.406-0.843-0.77-1.332-1.078
						l-0.383,0.607c1.073,0.676,1.912,1.633,2.426,2.766l0.652-0.295c-0.236-0.524-0.536-1.014-0.891-1.461l0.381-0.332
						C270.871,472.49,270.933,472.494,270.993,472.484z"/>
					<path id="XMLID_249_" style="fill:#F2F2F2;" d="M264.231,479.732c-0.366,0.022-0.733,0.033-1.096,0.033
						c-0.831,0-1.639-0.059-2.345-0.17c-0.369-0.059-0.8-0.147-1.2-0.277c0.99,1.762,2.902,2.957,5.097,2.957
						c2.701,0,4.978-1.813,5.628-4.26c-0.645,0.426-1.425,0.781-2.326,1.061C266.873,479.426,265.573,479.652,264.231,479.732z"/>
					<path id="XMLID_245_" style="fill:#F2F2F2;" d="M264.749,471.51c-3.171,0-5.752,2.523-5.752,5.623
						c0,0.402,0.045,0.803,0.13,1.191c0.637,0.459,2.56,0.844,5.058,0.693c2.725-0.166,5.011-0.906,6.311-2.043
						c-0.003-0.184-0.018-0.369-0.042-0.549C270.096,473.623,267.642,471.51,264.749,471.51z M262.705,477.672
						c-0.964,0-1.749-0.785-1.749-1.748c0-0.967,0.785-1.752,1.749-1.752c0.965,0,1.75,0.785,1.75,1.752
						C264.455,476.887,263.67,477.672,262.705,477.672z M267.188,476.815c-0.709,0-1.288-0.578-1.288-1.287
						c0-0.709,0.579-1.287,1.288-1.287c0.71,0,1.286,0.578,1.286,1.287C268.474,476.236,267.897,476.815,267.188,476.815z"/>
				</g>
				<path id="XMLID_242_" style="fill:#F2F2F2;" d="M279.888,473.277c-0.279-0.111-0.763-0.293-1.308-0.227
					c-0.521,0.066-0.799,0.322-0.799,0.953v0.818h2.108v1.625h-2.108v5.16h-1.827v-5.16h-1.268v-1.625h1.268v-0.84
					c0-1.59,0.847-2.633,2.43-2.633c0.607,0,1.094,0.115,1.504,0.291V473.277z"/>
				<path id="XMLID_240_" style="fill:#F2F2F2;" d="M284.335,476.428c-0.167-0.027-0.338-0.043-0.497-0.043
					c-0.847,0-1.429,0.518-1.429,1.525v3.697h-1.827v-6.785h1.772v0.742c0.427-0.637,1.077-0.924,1.91-0.924
					c0.392,0,0.802,0.121,1.036,0.318L284.335,476.428z"/>
				<path id="XMLID_237_" style="fill:#F2F2F2;" d="M291.588,478.205c0,0.209-0.015,0.461-0.035,0.615h-4.809
					c0.195,0.98,0.881,1.408,1.742,1.408c0.589,0,1.225-0.238,1.716-0.652l1.072,1.176c-0.771,0.709-1.752,1.031-2.892,1.031
					c-2.08,0-3.523-1.416-3.523-3.551c0-2.135,1.4-3.592,3.431-3.592C290.243,474.641,291.581,476.09,291.588,478.205z
					 M286.751,477.574h3.003c-0.168-0.867-0.693-1.357-1.477-1.357C287.416,476.217,286.912,476.734,286.751,477.574z"/>
				<path id="XMLID_234_" style="fill:#F2F2F2;" d="M298.829,478.205c0,0.209-0.015,0.461-0.035,0.615h-4.811
					c0.196,0.98,0.884,1.408,1.744,1.408c0.588,0,1.225-0.238,1.715-0.652l1.071,1.176c-0.771,0.709-1.749,1.031-2.892,1.031
					c-2.08,0-3.522-1.416-3.522-3.551c0-2.135,1.4-3.592,3.432-3.592C297.483,474.641,298.821,476.09,298.829,478.205z
					 M293.99,477.574h3.004c-0.168-0.867-0.694-1.357-1.477-1.357C294.655,476.217,294.15,476.734,293.99,477.574z"/>
				<path id="XMLID_231_" style="fill:#F2F2F2;" d="M306.724,478.211c0,2.039-1.415,3.572-3.285,3.572
					c-0.909,0-1.554-0.357-1.995-0.883v3.508h-1.82v-9.586h1.785v0.75c0.441-0.553,1.092-0.932,2.022-0.932
					C305.309,474.641,306.724,476.174,306.724,478.211z M301.352,478.211c0,1.072,0.708,1.871,1.744,1.871
					c1.077,0,1.75-0.834,1.75-1.871c0-1.035-0.673-1.869-1.75-1.869C302.06,476.342,301.352,477.141,301.352,478.211z"/>
				<path id="XMLID_228_" style="fill:#F2F2F2;" d="M309.659,472.603c0,0.658-0.512,1.162-1.169,1.162
					c-0.66,0-1.163-0.504-1.163-1.162c0-0.658,0.503-1.176,1.163-1.176C309.147,471.428,309.659,471.945,309.659,472.603z
					 M309.413,481.607h-1.827v-6.785h1.827V481.607z"/>
				<path id="XMLID_226_" style="fill:#F2F2F2;" d="M312.462,477.238l2.557-2.416h2.239l-3.29,3.193l3.313,3.592h-2.248l-2.57-2.744
					v2.744h-1.827v-10.082h1.827V477.238z"/>
			</g>
			<g>
				<path style="fill:#F2F2F2;" d="M187.957,481.547v-0.998c-0.499,0.68-1.315,1.164-2.258,1.164c-1.746,0-2.979-1.33-2.979-3.506
					c0-2.135,1.22-3.52,2.979-3.52c0.9,0,1.718,0.443,2.258,1.178v-3.561h1.04v9.242H187.957z M187.957,479.73v-3.033
					c-0.374-0.582-1.178-1.082-2.009-1.082c-1.344,0-2.147,1.109-2.147,2.592c0,1.483,0.804,2.576,2.147,2.576
					C186.779,480.783,187.583,480.313,187.957,479.73z"/>
				<path style="fill:#F2F2F2;" d="M190.341,478.193c0-1.939,1.386-3.506,3.298-3.506c2.022,0,3.214,1.58,3.214,3.588v0.264h-5.417
					c0.083,1.262,0.97,2.314,2.41,2.314c0.763,0,1.538-0.305,2.064-0.846l0.499,0.68c-0.665,0.664-1.565,1.025-2.66,1.025
					C191.768,481.713,190.341,480.285,190.341,478.193z M193.624,475.547c-1.427,0-2.134,1.205-2.189,2.23h4.393
					C195.813,476.779,195.148,475.547,193.624,475.547z"/>
				<path style="fill:#F2F2F2;" d="M197.601,480.66l0.541-0.748c0.443,0.512,1.288,0.955,2.202,0.955c1.026,0,1.58-0.484,1.58-1.15
					c0-1.621-4.143-0.623-4.143-3.103c0-1.039,0.9-1.926,2.493-1.926c1.137,0,1.94,0.43,2.482,0.969l-0.485,0.721
					c-0.401-0.484-1.136-0.844-1.996-0.844c-0.914,0-1.481,0.457-1.481,1.053c0,1.469,4.142,0.498,4.142,3.104
					c0,1.123-0.9,2.023-2.633,2.023C199.208,481.713,198.28,481.381,197.601,480.66z"/>
				<path style="fill:#F2F2F2;" d="M204.1,473.205c0-0.389,0.318-0.707,0.692-0.707c0.388,0,0.707,0.318,0.707,0.707
					c0,0.387-0.319,0.691-0.707,0.691C204.418,473.897,204.1,473.592,204.1,473.205z M204.279,481.547v-6.693h1.04v6.693H204.279z"
					/>
				<path style="fill:#F2F2F2;" d="M207.037,483.264l0.525-0.775c0.555,0.666,1.22,0.914,2.176,0.914
					c1.108,0,2.147-0.539,2.147-2.008v-0.957c-0.484,0.68-1.302,1.191-2.244,1.191c-1.746,0-2.979-1.303-2.979-3.463
					c0-2.148,1.22-3.478,2.979-3.478c0.9,0,1.704,0.443,2.244,1.178v-1.012h1.04v6.498c0,2.217-1.553,2.91-3.188,2.91
					C208.602,484.262,207.826,484.039,207.037,483.264z M211.886,479.621v-2.924c-0.359-0.582-1.163-1.082-1.995-1.082
					c-1.344,0-2.147,1.066-2.147,2.551c0,1.469,0.804,2.549,2.147,2.549C210.723,480.715,211.526,480.203,211.886,479.621z"/>
				<path style="fill:#F2F2F2;" d="M219.175,481.547v-4.379c0-1.178-0.597-1.553-1.497-1.553c-0.817,0-1.594,0.5-1.981,1.039v4.893
					h-1.039v-6.693h1.039v0.971c0.471-0.555,1.386-1.137,2.384-1.137c1.399,0,2.134,0.707,2.134,2.162v4.697H219.175z"/>
				<path style="fill:#F2F2F2;" d="M221.558,478.193c0-1.939,1.386-3.506,3.298-3.506c2.022,0,3.215,1.58,3.215,3.588v0.264h-5.418
					c0.083,1.262,0.97,2.314,2.41,2.314c0.763,0,1.538-0.305,2.065-0.846l0.498,0.68c-0.665,0.664-1.566,1.025-2.66,1.025
					C222.985,481.713,221.558,480.285,221.558,478.193z M224.841,475.547c-1.427,0-2.134,1.205-2.188,2.23h4.393
					C227.03,476.779,226.365,475.547,224.841,475.547z"/>
				<path style="fill:#F2F2F2;" d="M234.25,481.547v-0.998c-0.499,0.68-1.316,1.164-2.259,1.164c-1.746,0-2.98-1.33-2.98-3.506
					c0-2.135,1.22-3.52,2.98-3.52c0.9,0,1.719,0.443,2.259,1.178v-3.561h1.039v9.242H234.25z M234.25,479.73v-3.033
					c-0.375-0.582-1.178-1.082-2.009-1.082c-1.345,0-2.148,1.109-2.148,2.592c0,1.483,0.804,2.576,2.148,2.576
					C233.072,480.783,233.875,480.313,234.25,479.73z"/>
				<path style="fill:#F2F2F2;" d="M240.249,481.547v-9.242h1.039v3.561c0.541-0.734,1.345-1.178,2.259-1.178
					c1.745,0,2.979,1.385,2.979,3.52c0,2.176-1.234,3.506-2.979,3.506c-0.942,0-1.76-0.484-2.259-1.164v0.998H240.249z
					 M243.283,480.783c1.358,0,2.162-1.094,2.162-2.576c0-1.482-0.804-2.592-2.162-2.592c-0.817,0-1.635,0.5-1.995,1.082v3.033
					C241.648,480.313,242.466,480.783,243.283,480.783z"/>
				<path style="fill:#F2F2F2;" d="M247.662,483.223c0.152,0.07,0.402,0.111,0.567,0.111c0.458,0,0.763-0.152,0.998-0.707
					l0.443-1.012l-2.799-6.762h1.122l2.231,5.486l2.217-5.486h1.136l-3.353,8.051c-0.402,0.969-1.081,1.344-1.968,1.357
					c-0.222,0-0.568-0.041-0.763-0.098L247.662,483.223z"/>
			</g>
		</g>
	</g>
</g>
</svg>
